<?xml version="1.0" encoding="UTF-8" standalone="no"?>
<!DOCTYPE svg PUBLIC "-//W3C//DTD SVG 1.1//EN"
 "http://www.w3.org/Graphics/SVG/1.1/DTD/svg11.dtd">
<!-- Generated by graphviz version 2.47.0 (20210316.0004)
 -->
<!-- Title: dependencies Pages: 1 -->
<svg width="1324pt" height="222pt"
 viewBox="0.00 0.00 1324.00 222.00" xmlns="http://www.w3.org/2000/svg" xmlns:xlink="http://www.w3.org/1999/xlink">
<g id="graph0" class="graph" transform="scale(1 1) rotate(0) translate(4 218)">
<title>dependencies</title>
<polygon fill="white" stroke="transparent" points="-4,4 -4,-218 1320,-218 1320,4 -4,4"/>
<text text-anchor="start" x="637.01" y="-42.4" font-family="Times-12" font-weight="bold" font-size="14.00">Legend</text>
<polygon fill="#ffffb3" stroke="transparent" points="424,-10 424,-30 444,-30 444,-10 424,-10"/>
<text text-anchor="start" x="447.63" y="-15.4" font-family="Times-12" font-size="14.00"> &#160;Declarations</text>
<polygon fill="#8dd3c7" stroke="transparent" points="537,-10 537,-30 557,-30 557,-10 537,-10"/>
<text text-anchor="start" x="560.73" y="-15.4" font-family="Times-12" font-size="14.00"> &#160;Module</text>
<polygon fill="#80b1d3" stroke="transparent" points="623,-10 623,-30 643,-30 643,-10 623,-10"/>
<text text-anchor="start" x="646.78" y="-15.4" font-family="Times-12" font-size="14.00"> &#160;Bootstrap</text>
<polygon fill="#fdb462" stroke="transparent" points="720,-10 720,-30 740,-30 740,-10 720,-10"/>
<text text-anchor="start" x="743.67" y="-15.4" font-family="Times-12" font-size="14.00"> &#160;Providers</text>
<polygon fill="#fb8072" stroke="transparent" points="816,-10 816,-30 836,-30 836,-10 816,-10"/>
<text text-anchor="start" x="839.73" y="-15.4" font-family="Times-12" font-size="14.00"> &#160;Exports</text>
<g id="clust1" class="cluster">
<title>cluster_AppModule</title>
<polygon fill="none" stroke="black" stroke-dasharray="1,5" points="8,-70 8,-198 412,-198 412,-70 8,-70"/>
</g>
<g id="clust3" class="cluster">
<title>cluster_AppModule_imports</title>
<polygon fill="none" stroke="black" points="154,-78 154,-130 404,-130 404,-78 154,-78"/>
</g>
<g id="clust6" class="cluster">
<title>cluster_AppModule_providers</title>
<polygon fill="none" stroke="black" points="16,-78 16,-130 146,-130 146,-78 16,-78"/>
</g>
<g id="clust7" class="cluster">
<title>cluster_ProductsModule</title>
<polygon fill="none" stroke="black" stroke-dasharray="1,5" points="420,-138 420,-206 734,-206 734,-138 420,-138"/>
</g>
<g id="clust10" class="cluster">
<title>cluster_ProductsModule_exports</title>
<polygon fill="none" stroke="black" points="600,-146 600,-198 726,-198 726,-146 600,-146"/>
</g>
<g id="clust12" class="cluster">
<title>cluster_ProductsModule_providers</title>
<polygon fill="none" stroke="black" points="428,-146 428,-198 592,-198 592,-146 428,-146"/>
</g>
<g id="clust13" class="cluster">
<title>cluster_ReviewProcessorModule</title>
<polygon fill="none" stroke="black" stroke-dasharray="1,5" points="1062,-70 1062,-198 1308,-198 1308,-70 1062,-70"/>
</g>
<g id="clust18" class="cluster">
<title>cluster_ReviewProcessorModule_providers</title>
<polygon fill="none" stroke="black" points="1070,-78 1070,-130 1300,-130 1300,-78 1070,-78"/>
</g>
<g id="clust19" class="cluster">
<title>cluster_ReviewsModule</title>
<polygon fill="none" stroke="black" stroke-dasharray="1,5" points="742,-138 742,-206 1054,-206 1054,-138 742,-138"/>
</g>
<g id="clust22" class="cluster">
<title>cluster_ReviewsModule_exports</title>
<polygon fill="none" stroke="black" points="920,-146 920,-198 1046,-198 1046,-146 920,-146"/>
</g>
<g id="clust24" class="cluster">
<title>cluster_ReviewsModule_providers</title>
<polygon fill="none" stroke="black" points="750,-146 750,-198 912,-198 912,-146 750,-146"/>
</g>
<!-- ProductsModule -->
<g id="node1" class="node">
<title>ProductsModule</title>
<polygon fill="#8dd3c7" stroke="black" points="270.04,-122 267.04,-126 246.04,-126 243.04,-122 161.96,-122 161.96,-86 270.04,-86 270.04,-122"/>
<text text-anchor="middle" x="216" y="-99.8" font-family="Times,serif" font-size="14.00">ProductsModule</text>
</g>
<!-- AppModule -->
<g id="node3" class="node">
<title>AppModule</title>
<polygon fill="#8dd3c7" stroke="black" points="257.66,-190 254.66,-194 233.66,-194 230.66,-190 174.34,-190 174.34,-154 257.66,-154 257.66,-190"/>
<text text-anchor="middle" x="216" y="-167.8" font-family="Times,serif" font-size="14.00">AppModule</text>
</g>
<!-- ProductsModule&#45;&gt;AppModule -->
<g id="edge1" class="edge">
<title>ProductsModule&#45;&gt;AppModule</title>
<path fill="none" stroke="black" d="M216,-122.22C216,-122.22 216,-143.73 216,-143.73"/>
<polygon fill="black" stroke="black" points="212.5,-143.73 216,-153.73 219.5,-143.73 212.5,-143.73"/>
</g>
<!-- ProductsService  -->
<g id="node5" class="node">
<title>ProductsService </title>
<polygon fill="#fb8072" stroke="black" points="718.47,-190 607.53,-190 607.53,-154 718.47,-154 718.47,-190"/>
<text text-anchor="middle" x="663" y="-167.8" font-family="Times,serif" font-size="14.00">ProductsService </text>
</g>
<!-- ProductsModule&#45;&gt;ProductsService  -->
<g id="edge4" class="edge">
<title>ProductsModule&#45;&gt;ProductsService </title>
<path fill="none" stroke="black" stroke-dasharray="5,2" d="M261.98,-122.19C261.98,-130.28 261.98,-138 261.98,-138 261.98,-138 663,-138 663,-138 663,-138 663,-143.81 663,-143.81"/>
<polygon fill="black" stroke="black" points="659.5,-143.81 663,-153.81 666.5,-143.81 659.5,-143.81"/>
</g>
<!-- ReviewsModule -->
<g id="node2" class="node">
<title>ReviewsModule</title>
<polygon fill="#8dd3c7" stroke="black" points="395.76,-122 392.76,-126 371.76,-126 368.76,-122 288.24,-122 288.24,-86 395.76,-86 395.76,-122"/>
<text text-anchor="middle" x="342" y="-99.8" font-family="Times,serif" font-size="14.00">ReviewsModule</text>
</g>
<!-- ReviewsModule&#45;&gt;AppModule -->
<g id="edge2" class="edge">
<title>ReviewsModule&#45;&gt;AppModule</title>
<path fill="none" stroke="black" d="M342,-122.27C342,-140.56 342,-166 342,-166 342,-166 267.96,-166 267.96,-166"/>
<polygon fill="black" stroke="black" points="267.96,-162.5 257.96,-166 267.96,-169.5 267.96,-162.5"/>
</g>
<!-- ReviewsService  -->
<g id="node9" class="node">
<title>ReviewsService </title>
<polygon fill="#fb8072" stroke="black" points="1037.69,-190 928.31,-190 928.31,-154 1037.69,-154 1037.69,-190"/>
<text text-anchor="middle" x="983" y="-167.8" font-family="Times,serif" font-size="14.00">ReviewsService </text>
</g>
<!-- ReviewsModule&#45;&gt;ReviewsService  -->
<g id="edge7" class="edge">
<title>ReviewsModule&#45;&gt;ReviewsService </title>
<path fill="none" stroke="black" stroke-dasharray="5,2" d="M395.82,-98C550.12,-98 983,-98 983,-98 983,-98 983,-143.71 983,-143.71"/>
<polygon fill="black" stroke="black" points="979.5,-143.71 983,-153.71 986.5,-143.71 979.5,-143.71"/>
</g>
<!-- AppService -->
<g id="node4" class="node">
<title>AppService</title>
<ellipse fill="#fdb462" stroke="black" cx="81" cy="-104" rx="56.74" ry="18"/>
<text text-anchor="middle" x="81" y="-99.8" font-family="Times,serif" font-size="14.00">AppService</text>
</g>
<!-- AppService&#45;&gt;AppModule -->
<g id="edge3" class="edge">
<title>AppService&#45;&gt;AppModule</title>
<path fill="none" stroke="black" d="M81,-122.22C81,-142.37 81,-172 81,-172 81,-172 164.03,-172 164.03,-172"/>
<polygon fill="black" stroke="black" points="164.03,-175.5 174.03,-172 164.03,-168.5 164.03,-175.5"/>
</g>
<!-- ProductsService -->
<g id="node6" class="node">
<title>ProductsService</title>
<ellipse fill="#fdb462" stroke="black" cx="510" cy="-172" rx="73.57" ry="18"/>
<text text-anchor="middle" x="510" y="-167.8" font-family="Times,serif" font-size="14.00">ProductsService</text>
</g>
<!-- ProductsService&#45;&gt;ProductsModule -->
<g id="edge5" class="edge">
<title>ProductsService&#45;&gt;ProductsModule</title>
<path fill="none" stroke="black" d="M440.11,-178C368.05,-178 266.12,-178 266.12,-178 266.12,-178 266.12,-132.29 266.12,-132.29"/>
<polygon fill="black" stroke="black" points="269.62,-132.29 266.12,-122.29 262.62,-132.29 269.62,-132.29"/>
</g>
<!-- ReviewProcessorService -->
<g id="node7" class="node">
<title>ReviewProcessorService</title>
<ellipse fill="#fdb462" stroke="black" cx="1185" cy="-104" rx="107.06" ry="18"/>
<text text-anchor="middle" x="1185" y="-99.8" font-family="Times,serif" font-size="14.00">ReviewProcessorService</text>
</g>
<!-- ReviewProcessorModule -->
<g id="node8" class="node">
<title>ReviewProcessorModule</title>
<polygon fill="#8dd3c7" stroke="black" points="1263.24,-190 1260.24,-194 1239.24,-194 1236.24,-190 1106.76,-190 1106.76,-154 1263.24,-154 1263.24,-190"/>
<text text-anchor="middle" x="1185" y="-167.8" font-family="Times,serif" font-size="14.00">ReviewProcessorModule</text>
</g>
<!-- ReviewProcessorService&#45;&gt;ReviewProcessorModule -->
<g id="edge6" class="edge">
<title>ReviewProcessorService&#45;&gt;ReviewProcessorModule</title>
<path fill="none" stroke="black" d="M1185,-122.22C1185,-122.22 1185,-143.73 1185,-143.73"/>
<polygon fill="black" stroke="black" points="1181.5,-143.73 1185,-153.73 1188.5,-143.73 1181.5,-143.73"/>
</g>
<!-- ReviewsService -->
<g id="node10" class="node">
<title>ReviewsService</title>
<ellipse fill="#fdb462" stroke="black" cx="831" cy="-172" rx="73.49" ry="18"/>
<text text-anchor="middle" x="831" y="-167.8" font-family="Times,serif" font-size="14.00">ReviewsService</text>
</g>
<!-- ReviewsService&#45;&gt;ReviewsModule -->
<g id="edge8" class="edge">
<title>ReviewsService&#45;&gt;ReviewsModule</title>
<path fill="none" stroke="black" d="M831,-153.73C831,-135.44 831,-110 831,-110 831,-110 406.2,-110 406.2,-110"/>
<polygon fill="black" stroke="black" points="406.2,-106.5 396.2,-110 406.2,-113.5 406.2,-106.5"/>
</g>
</g>
</svg>
